<html>
<head>
<meta charset="UTF-8">
<meta name="viewport" content="width=device-width, initial-scale=1.0"/>

<style>
.comment
{
    padding-left: 20px;
    margin-top: 4px;
    margin-right: 4px;
    margin-bottom: 4px;
    border: 2px #000 solid;
}
.submission
{
    border: 4px #00f solid;
    padding-left: 20px;
}
.hidden
{
    display: none;
}
</style>
</head>
<body><div class="submission" id="t3_6kg4v4">
    <p class="userinfo">
        <a href="https://www.reddit.com/u/n0197exe">n0197exe</a>
        <span class="score"> | 20 points</span>
        <span class="timestamp"> | Jun 30 2017 14:08:20</span>
    </p>
    <strong>[MOVIE] The.Fate.of.the.Furious.EXT.DC.2017.1080p.AMZN.WEBRip.DD5.1.x264-PLAYREADY [8.17GB]</strong>
    <p><p><a href="http://www.imdb.com/title/tt4630562">IMDb</a></p>
<p><strong>Video</strong></p>
<p>ID                                       : 1</p>
<p>Format                                   : AVC</p>
<p>Format/Info                              : Advanced Video Codec</p>
<p>Format profile                           : High@L4</p>
<p>Format settings, CABAC                   : Yes</p>
<p>Format settings, ReFrames                : 4 frames</p>
<p>Codec ID                                 : V_MPEG4/ISO/AVC</p>
<p>Duration                                 : 2 h 28 min</p>
<p>Bit rate mode                            : Variable</p>
<p>Bit rate                                 : 7 249 kb/s</p>
<p>Maximum bit rate                         : 15.0 Mb/s</p>
<p>Width                                    : 1 920 pixels</p>
<p>Height                                   : 800 pixels</p>
<p>Display aspect ratio                     : 2.40:1</p>
<p>Frame rate mode                          : Constant</p>
<p>Frame rate                               : 23.976 (24000/1001) FPS</p>
<p>Color space                              : YUV</p>
<p>Chroma subsampling                       : 4:2:0</p>
<p>Bit depth                                : 8 bits</p>
<p>Scan type                                : Progressive</p>
<p>Bits/(Pixel*Frame)                       : 0.197</p>
<p>Stream size                              : 7.51 GiB (92%)</p>
<p>Default                                  : Yes</p>
<p>Forced                                   : No</p>
<p>Color range                              : Limited</p>
<p>Color primaries                          : BT.709</p>
<p>Transfer characteristics                 : BT.709</p>
<p>Matrix coefficients                      : BT.709</p>
<p><strong>Audio</strong></p>
<p>ID                                       : 2</p>
<p>Format                                   : E-AC-3</p>
<p>Format/Info                              : Enhanced Audio Coding 3</p>
<p>Format settings, Endianness              : Big</p>
<p>Codec ID                                 : A_EAC3</p>
<p>Duration                                 : 2 h 28 min</p>
<p>Bit rate mode                            : Constant</p>
<p>Bit rate                                 : 640 kb/s</p>
<p>Channel(s)                               : 6 channels</p>
<p>Channel positions                        : Front: L C R, Side: L R, LFE</p>
<p>Sampling rate                            : 48.0 kHz</p>
<p>Frame rate                               : 187.500 FPS (256 spf)</p>
<p>Compression mode                         : Lossy</p>
<p>Stream size                              : 679 MiB (8%)</p>
<p>Service kind                             : Complete Main</p>
<p>Default                                  : Yes</p>
<p>Forced                                   : No</p>
<p><strong>Text</strong></p>
<p>ID                                       : 3</p>
<p>Format                                   : UTF-8</p>
<p>Codec ID                                 : S_TEXT/UTF8</p>
<p>Codec ID/Info                            : UTF-8 Plain Text</p>
<p>Duration                                 : 2 h 27 min</p>
<p>Bit rate                                 : 63 b/s</p>
<p>Count of elements                        : 2490</p>
<p>Stream size                              : 68.7 KiB (0%)</p>
<p>Title                                    : English</p>
<p>Default                                  : No</p>
<p>Forced                                   : No</p>
<hr>
<p><strong>Delete "MGL" from the link</strong></p>
<p><strong>LINK</strong> mega.co.nz/#F!f9Mi<strong>MGL</strong>GTbY</p>
<p><strong>KEY:</strong> !HQIGMvrWXLGIqxrPeT6OXA</p>
<hr>
<p><a href="http://links.snahp.it/298.FOF.2017">UPTOBOX</a></p></p>
    <p class="toolbar">
        <a href="https://www.reddit.com/r/megalinks/comments/6kg4v4">permalink</a>
    </p>
</div>
<div class="comment" id="t1_djlvcxx">
    <p class="userinfo">
        <a
        class="toggle_hide_button"
        href="javascript:void(0)"
        onclick="toggle_collapse(this.parentElement.parentElement)">[-]
        </a>
        <a href="https://www.reddit.com/u/RenegadeReddit">RenegadeReddit</a>
        <span class="score"> | 5 points</span>
        <span class="timestamp"> | Jun 30 2017 15:40:02</span>
    </p>
    <div class="collapsible">
        <p>Does anyone know what extra scenes are in the extended cut?</p>
        <p class="toolbar">
            <a href="https://www.reddit.com/r/megalinks/comments/6kg4v4/_/djlvcxx">permalink</a>
        </p>
        <div class="comment" id="t1_djm31dy">
    <p class="userinfo">
        <a
        class="toggle_hide_button"
        href="javascript:void(0)"
        onclick="toggle_collapse(this.parentElement.parentElement)">[-]
        </a>
        <a href="https://www.reddit.com/u/NarcFlagz">NarcFlagz</a>
        <span class="score"> | 8 points</span>
        <span class="timestamp"> | Jun 30 2017 17:55:32</span>
    </p>
    <div class="collapsible">
        <p>The Rock shows more abs, Vin Diesel does some more driving and Jason Statham fucks more stuff up.</p>
        <p class="toolbar">
            <a href="https://www.reddit.com/r/megalinks/comments/6kg4v4/_/djm31dy">permalink</a>
        </p>
        
    </div>
</div>
    </div>
</div>

<div class="comment" id="t1_djm37s2">
    <p class="userinfo">
        <a
        class="toggle_hide_button"
        href="javascript:void(0)"
        onclick="toggle_collapse(this.parentElement.parentElement)">[-]
        </a>
        <a href="https://www.reddit.com/u/brds">brds</a>
        <span class="score"> | -5 points</span>
        <span class="timestamp"> | Jun 30 2017 17:58:37</span>
    </p>
    <div class="collapsible">
        <p>Dead Link</p>
        <p class="toolbar">
            <a href="https://www.reddit.com/r/megalinks/comments/6kg4v4/_/djm37s2">permalink</a>
        </p>
        <div class="comment" id="t1_djm52qd">
    <p class="userinfo">
        <a
        class="toggle_hide_button"
        href="javascript:void(0)"
        onclick="toggle_collapse(this.parentElement.parentElement)">[-]
        </a>
        <a href="https://www.reddit.com/u/n0197exe">n0197exe</a>
        <span class="score"> | 3 points</span>
        <span class="timestamp"> | Jun 30 2017 18:31:31</span>
    </p>
    <div class="collapsible">
        <p>Checked right now and is fine, <strong>read the post.</strong></p>
        <p class="toolbar">
            <a href="https://www.reddit.com/r/megalinks/comments/6kg4v4/_/djm52qd">permalink</a>
        </p>
        
    </div>
</div>
    </div>
</div>
</body>

<script>
function toggle_collapse(comment_div)
{
    var button = comment_div.getElementsByClassName("toggle_hide_button")[0];
    var collapsible = comment_div.getElementsByClassName("collapsible")[0];
    if (collapsible.classList.contains("hidden"))
    {
        collapsible.classList.remove("hidden");
        button.innerText = "[-]";
    }
    else
    {
        collapsible.classList.add("hidden");
        button.innerText = "[+]";
    }
}
</script>
</html>
